<?xml version="1.0" standalone="no"?><!DOCTYPE svg PUBLIC "-//W3C//DTD SVG 1.1//EN" "http://www.w3.org/Graphics/SVG/1.1/DTD/svg11.dtd"><svg class="icon" height="512" viewBox="0 0 1024 1024" version="1.1" xmlns="http://www.w3.org/2000/svg"><path d="M226.922754 398.330124l-69.532633 0 0 204.365504-21.766746 0L135.623375 398.330124 65.788867 398.330124l0-19.953448 161.133887 0L226.922754 398.330124zM424.030971 534.37152c-2.824325 14.511505-7.359618 26.806529-13.603833 36.883025-6.854105 11.289114-15.923668 19.853164-27.208689 25.696242-12.498662 6.447852-27.614941 9.674337-45.346791 9.674337-17.736966 0-32.853245-3.226484-45.346791-9.674337-11.290137-5.843078-20.3597-14.407128-27.208689-25.696242-6.249331-10.076496-10.784624-22.37152-13.603833-36.883025-2.418073-12.697183-3.62762-27.307949-3.62762-43.835368 0-16.523325 1.209548-31.139208 3.62762-43.835368 2.820232-14.511505 7.354502-26.802436 13.603833-36.882002 6.848988-11.285021 15.918551-19.84907 27.208689-25.697265 12.493545-6.447852 27.609825-9.674337 45.346791-9.674337 17.732873 0 32.848129 3.226484 45.346791 9.674337 11.285021 5.848195 20.354584 14.412244 27.208689 25.697265 6.244214 10.080589 10.779507 22.37152 13.603833 36.882002 2.419096 12.697183 3.62762 27.312042 3.62762 43.835368C427.658591 507.064594 426.449044 521.67536 424.030971 534.37152zM386.84607 414.050154c-10.278087-13.098319-26.603915-19.650549-48.974411-19.650549s-38.696324 6.551206-48.975435 19.650549c-12.092409 15.115256-18.139126 40.614-18.139126 76.485998 0 35.876092 6.045693 61.370743 18.139126 76.485998 10.278087 13.103436 26.603915 19.649526 48.975435 19.649526s38.696324-6.54609 48.974411-19.649526c12.092409-15.115256 18.139126-40.609906 18.139126-76.485998C404.985196 454.665177 398.93848 429.166433 386.84607 414.050154zM613.579001 602.695628 473.002312 602.695628 473.002312 378.3777l140.576689 0 0 19.953448L494.769059 398.331147l0 78.904071 99.764168 0 0 19.953448-99.764168 0 0 85.555561 118.809943 0L613.579001 602.695628zM793.453718 398.330124 680.689469 398.330124l0 78.904071 93.718475 0 0 19.953448-93.718475 0 0 105.507986-21.766746 0L658.922722 378.3777l134.529973 0L793.452695 398.330124zM958.214203 602.695628 826.707077 602.695628 826.707077 378.3777l21.766746 0 0 204.365504 109.74038 0L958.214203 602.695628z" fill="#6E7E85" fill-rule="evenodd"/></svg>